<svg width="64" height="64" viewBox="0 0 64 64" fill="none" xmlns="http://www.w3.org/2000/svg">
<g clip-path="url(#clip0_3_10)">
<path d="M62.5 32C62.5 35.8732 60.8463 38.4459 58.2148 40.51C55.5793 42.5773 52.048 44.0706 48.2042 45.696C48.0667 45.7542 47.9287 45.8125 47.7904 45.871C43.8868 47.523 39.707 49.3293 36.4611 52.0365C33.4458 54.5513 31.2214 57.8524 30.6308 62.4698C14.4215 61.7537 1.5 48.3858 1.5 32C1.5 15.1553 15.1553 1.5 32 1.5C48.8447 1.5 62.5 15.1553 62.5 32Z" fill="#343A40" stroke="#F8F9FA" stroke-width="3"/>
<path d="M24.6735 45.5058C23.5856 46.2676 22.4526 46.7973 21.2742 47.095C20.109 47.3835 18.9608 47.4453 17.8295 47.2803C16.7114 47.1061 15.6595 46.7196 14.6737 46.1207C13.701 45.5126 12.8568 44.6974 12.1409 43.6751C11.4251 42.6528 10.9478 41.5807 10.7091 40.4587C10.4835 39.3275 10.4866 38.2022 10.7185 37.0828C10.9503 35.9634 11.4011 34.9055 12.0708 33.9092C12.7404 32.913 13.6126 32.0386 14.6874 31.286C15.7752 30.5243 16.8952 30.0038 18.0473 29.7244C19.2125 29.4359 20.3542 29.3787 21.4723 29.5529C22.6035 29.7179 23.662 30.0998 24.6478 30.6987C25.6244 31.2845 26.4752 32.0951 27.2002 33.1305C27.9161 34.1528 28.3914 35.2361 28.6262 36.3804C28.8518 37.5115 28.8486 38.6368 28.6168 39.7563C28.3889 40.8534 27.9401 41.9001 27.2704 42.8964C26.6139 43.8835 25.7482 44.7533 24.6735 45.5058ZM22.7541 42.8066C23.3701 42.3752 23.8603 41.8758 24.2246 41.3082C24.602 40.7314 24.8497 40.1087 24.9676 39.4402C25.0854 38.7717 25.0611 38.0953 24.8945 37.4111C24.7411 36.7178 24.4349 36.0434 23.9761 35.3881C23.5172 34.7328 22.9882 34.2144 22.3891 33.8331C21.8032 33.4426 21.1759 33.1884 20.5074 33.0705C19.852 32.9434 19.1888 32.9586 18.5177 33.116C17.8466 33.2734 17.203 33.5677 16.587 33.9991C15.971 34.4304 15.4743 34.9344 15.0969 35.5112C14.7326 36.0789 14.4915 36.6969 14.3736 37.3654C14.2557 38.0339 14.2735 38.7149 14.427 39.4083C14.5936 40.0925 14.9063 40.7622 15.3651 41.4175C15.8148 42.0598 16.3372 42.5827 16.9324 42.9863C17.5314 43.3677 18.1587 43.6219 18.8141 43.7489C19.4826 43.8668 20.1524 43.847 20.8235 43.6897C21.4946 43.5323 22.1381 43.2379 22.7541 42.8066ZM35.0817 38.1008C34.5574 38.4679 33.9813 38.6075 33.3535 38.5198C32.7295 38.4098 32.2202 38.073 31.8256 37.5094C31.431 36.9458 31.2979 36.3652 31.4262 35.7675C31.5585 35.1474 31.8868 34.6539 32.4111 34.2868C32.9484 33.9105 33.5245 33.7709 34.1393 33.8678C34.7449 33.9516 35.245 34.2753 35.6396 34.8388C36.0342 35.4024 36.1765 35.9962 36.0665 36.6201C35.9473 37.231 35.619 37.7245 35.0817 38.1008ZM39.8213 29.8599L37.0701 26.3074L38.7968 14.756L42.3355 12.2782L40.8722 22.8248L40.4243 25.9511L39.8213 29.8599ZM39.1732 35.0015L29.5371 21.2397L32.7023 19.0234L42.3384 32.7852L39.1732 35.0015ZM48.5901 28.4076L39.4963 25.8391L39.9972 22.1191L52.3058 25.8059L48.5901 28.4076ZM54.7797 24.308C54.2554 24.6751 53.6794 24.8148 53.0515 24.7271C52.4276 24.6171 51.9183 24.2803 51.5237 23.7167C51.129 23.1531 50.9959 22.5725 51.1243 21.9747C51.2566 21.3547 51.5849 20.8612 52.1091 20.4941C52.6465 20.1178 53.2226 19.9781 53.8373 20.075C54.4429 20.1589 54.943 20.4825 55.3376 21.0461C55.7323 21.6097 55.8746 22.2035 55.7645 22.8274C55.6453 23.4382 55.3171 23.9318 54.7797 24.308Z" fill="#F8F9FA"/>
</g>
<defs>
<clipPath id="clip0_3_10">
<rect width="64" height="64" fill="white"/>
</clipPath>
</defs>
</svg>
