<?xml version="1.0" encoding="utf-8"?>
<!-- Uploaded to: SVG Repo, www.svgrepo.com, Generator: SVG Repo Mixer Tools -->
<svg fill="#414141" height="800px" width="800px" version="1.1" id="Layer_1" xmlns="http://www.w3.org/2000/svg" xmlns:xlink="http://www.w3.org/1999/xlink" 
	 viewBox="0 0 128 82" xml:space="preserve">
<g>
	<path d="M2.1,66.4c0,8.8,6.7,12.9,12.1,12.9h97.6c6.5,0,12.1-5.1,12.1-12.9H2.1z"/>
	<path d="M39.7,63.5h47.2c6.8,0,11.5-5.7,11.5-11.6v-4c13.4,0,23.2-10.1,23.2-21.9c0-12-9.6-21.9-20.7-21.9H28.1v47.7
		C28.1,58.3,33.7,63.5,39.7,63.5z M98.3,13.1l2.5,0l0,0c9.2,0,12.2,8.7,12.1,12.9l0,0c0,6.9-5.1,13.4-14.6,12.8V13.1z"/>
</g>
</svg>