<svg width="96" height="96" viewBox="0 0 96 96" fill="none" xmlns="http://www.w3.org/2000/svg">
<g clip-path="url(#clip0_3_10)">
<path d="M94.5 48C94.5 54.0823 91.8775 58.145 87.7851 61.3551C83.7511 64.5195 78.3704 66.7944 72.6464 69.2145C72.424 69.3085 72.2012 69.4027 71.9779 69.4972C66.1055 71.9823 59.9414 74.653 55.1721 78.6307C50.629 82.4197 47.335 87.4049 46.6119 94.4797C21.5728 93.7456 1.5 73.2169 1.5 48C1.5 22.3188 22.3188 1.5 48 1.5C73.6812 1.5 94.5 22.3188 94.5 48Z" fill="#343A40" stroke="#F8F9FA" stroke-width="3"/>
<path d="M33.797 67.8816C32.1653 69.0241 30.4656 69.8187 28.6981 70.2653C26.9503 70.6981 25.2279 70.7907 23.5311 70.5432C21.8539 70.2819 20.276 69.7021 18.7973 68.8038C17.3383 67.8917 16.0719 66.669 14.9982 65.1355C13.9245 63.602 13.2086 61.9938 12.8505 60.3109C12.5121 58.6141 12.5168 56.9262 12.8645 55.247C13.2123 53.5679 13.8884 51.9811 14.8929 50.4867C15.8974 48.9922 17.2057 47.6806 18.8178 46.5518C20.4496 45.4093 22.1295 44.6285 23.8577 44.2094C25.6056 43.7766 27.3181 43.6909 28.9953 43.9521C30.6921 44.1996 32.2798 44.7726 33.7585 45.6709C35.2234 46.5496 36.4996 47.7654 37.5871 49.3186C38.6609 50.852 39.3738 52.4769 39.726 54.1933C40.0644 55.8901 40.0597 57.578 39.712 59.2572C39.3701 60.9029 38.6969 62.473 37.6924 63.9674C36.7076 65.448 35.4091 66.7528 33.797 67.8816ZM30.918 63.8327C31.842 63.1857 32.5772 62.4365 33.1237 61.585C33.6898 60.7199 34.0613 59.7859 34.2381 58.7831C34.4149 57.7804 34.3784 56.7658 34.1286 55.7395C33.8984 54.6995 33.4392 53.6879 32.7509 52.705C32.0626 51.722 31.2691 50.9445 30.3705 50.3724C29.4916 49.7866 28.5507 49.4053 27.5479 49.2285C26.5648 49.0379 25.57 49.0607 24.5633 49.2968C23.5567 49.5329 22.5914 49.9744 21.6674 50.6214C20.7433 51.2684 19.9983 52.0245 19.4321 52.8897C18.8857 53.7411 18.524 54.6682 18.3472 55.6709C18.1704 56.6737 18.1971 57.6951 18.4273 58.7352C18.6771 59.7615 19.1462 60.7661 19.8345 61.7491C20.509 62.7124 21.2926 63.4968 22.1853 64.1023C23.084 64.6743 24.0248 65.0556 25.0079 65.2462C26.0107 65.423 27.0154 65.3934 28.022 65.1573C29.0287 64.9212 29.994 64.4797 30.918 63.8327ZM49.4093 56.774C48.6229 57.3246 47.7588 57.5341 46.817 57.4025C45.8811 57.2375 45.1171 56.7323 44.5252 55.8869C43.9333 55.0416 43.7336 54.1706 43.9261 53.274C44.1246 52.344 44.617 51.6036 45.4034 51.053C46.2095 50.4886 47.0735 50.2791 47.9957 50.4245C48.9041 50.5502 49.6542 51.0357 50.2462 51.8811C50.8381 52.7264 51.0515 53.6171 50.8865 54.553C50.7077 55.4692 50.2153 56.2096 49.4093 56.774ZM56.5187 44.4126L52.392 39.0839L54.9819 21.7568L60.29 18.04L58.0951 33.86L57.4233 38.5494L56.5187 44.4126ZM55.5465 52.125L41.0924 31.4824L45.8402 28.1579L60.2943 48.8006L55.5465 52.125ZM69.672 42.2343L56.0312 38.3815L56.7825 32.8015L75.2455 38.3317L69.672 42.2343ZM78.9563 36.0849C78.1699 36.6355 77.3059 36.845 76.364 36.7134C75.4281 36.5484 74.6642 36.0432 74.0723 35.1978C73.4803 34.3525 73.2807 33.4815 73.4732 32.5849C73.6717 31.6549 74.1641 30.9146 74.9505 30.3639C75.7565 29.7995 76.6206 29.59 77.5428 29.7354C78.4511 29.8611 79.2013 30.3466 79.7932 31.192C80.3852 32.0373 80.5986 32.928 80.4336 33.8639C80.2548 34.7802 79.7624 35.5205 78.9563 36.0849Z" fill="#F8F9FA"/>
</g>
<defs>
<clipPath id="clip0_3_10">
<rect width="96" height="96" fill="white"/>
</clipPath>
</defs>
</svg>
