<svg width="96" height="96" viewBox="0 0 96 96" fill="none" xmlns="http://www.w3.org/2000/svg">
<g clip-path="url(#clip0_3_14)">
<circle cx="48" cy="48" r="46.5" fill="#343A40" stroke="#F8F9FA" stroke-width="3"/>
<path d="M25.228 61.432C23.236 61.432 21.388 61.108 19.684 60.46C18.004 59.812 16.54 58.9 15.292 57.724C14.068 56.548 13.108 55.168 12.412 53.584C11.74 52 11.404 50.272 11.404 48.4C11.404 46.528 11.74 44.8 12.412 43.216C13.108 41.632 14.08 40.252 15.328 39.076C16.576 37.9 18.04 36.988 19.72 36.34C21.4 35.692 23.224 35.368 25.192 35.368C27.184 35.368 29.008 35.692 30.664 36.34C32.344 36.988 33.796 37.9 35.02 39.076C36.268 40.252 37.24 41.632 37.936 43.216C38.632 44.776 38.98 46.504 38.98 48.4C38.98 50.272 38.632 52.012 37.936 53.62C37.24 55.204 36.268 56.584 35.02 57.76C33.796 58.912 32.344 59.812 30.664 60.46C29.008 61.108 27.196 61.432 25.228 61.432ZM25.192 56.464C26.32 56.464 27.352 56.272 28.288 55.888C29.248 55.504 30.088 54.952 30.808 54.232C31.528 53.512 32.08 52.66 32.464 51.676C32.872 50.692 33.076 49.6 33.076 48.4C33.076 47.2 32.872 46.108 32.464 45.124C32.08 44.14 31.528 43.288 30.808 42.568C30.112 41.848 29.284 41.296 28.324 40.912C27.364 40.528 26.32 40.336 25.192 40.336C24.064 40.336 23.02 40.528 22.06 40.912C21.124 41.296 20.296 41.848 19.576 42.568C18.856 43.288 18.292 44.14 17.884 45.124C17.5 46.108 17.308 47.2 17.308 48.4C17.308 49.576 17.5 50.668 17.884 51.676C18.292 52.66 18.844 53.512 19.54 54.232C20.26 54.952 21.1 55.504 22.06 55.888C23.02 56.272 24.064 56.464 25.192 56.464ZM44.3879 61.288C43.4279 61.288 42.5999 60.964 41.9039 60.316C41.2319 59.644 40.8959 58.792 40.8959 57.76C40.8959 56.728 41.2319 55.9 41.9039 55.276C42.5999 54.628 43.4279 54.304 44.3879 54.304C45.3719 54.304 46.1999 54.628 46.8719 55.276C47.5439 55.9 47.8799 56.728 47.8799 57.76C47.8799 58.792 47.5439 59.644 46.8719 60.316C46.1999 60.964 45.3719 61.288 44.3879 61.288ZM57.3018 55.24L56.9778 48.508L69.0378 35.8H75.5178L64.6458 47.5L61.4058 50.956L57.3018 55.24ZM52.0818 61V35.8H57.8778V61H52.0818ZM69.3258 61L60.3618 50.02L64.1778 45.88L76.1298 61L69.3258 61ZM80.4582 61.288C79.4982 61.288 78.6702 60.964 77.9742 60.316C77.3022 59.644 76.9662 58.792 76.9662 57.76C76.9662 56.728 77.3022 55.9 77.9742 55.276C78.6702 54.628 79.4982 54.304 80.4582 54.304C81.4422 54.304 82.2702 54.628 82.9422 55.276C83.6142 55.9 83.9502 56.728 83.9502 57.76C83.9502 58.792 83.6142 59.644 82.9422 60.316C82.2702 60.964 81.4422 61.288 80.4582 61.288Z" fill="#F8F9FA"/>
</g>
<defs>
<clipPath id="clip0_3_14">
<rect width="96" height="96" fill="white"/>
</clipPath>
</defs>
</svg>
